<svg width="18" height="18" viewBox="0 0 18 18" fill="none" xmlns="http://www.w3.org/2000/svg">
<path d="M0.631419 3.63613C0.209879 3.24486 0.000244141 2.76054 0.000244141 2.18429C0.000244141 1.60804 0.211001 1.10241 0.631419 0.710022C1.05296 0.318753 1.59558 0.122559 2.2604 0.122559C2.92522 0.122559 3.44655 0.318753 3.86697 0.710022C4.28851 1.10129 4.49814 1.59346 4.49814 2.18429C4.49814 2.77512 4.28739 3.24486 3.86697 3.63613C3.44543 4.0274 2.91065 4.22359 2.2604 4.22359C1.61016 4.22359 1.05296 4.0274 0.631419 3.63613ZM4.14388 5.88061V17.8765H0.353384V5.88061H4.14388Z" fill="black"/>
<path d="M16.762 7.06555C17.5882 7.96245 18.0008 9.19344 18.0008 10.7608V17.6646H14.4009V11.2473C14.4009 10.4569 14.1958 9.84255 13.7865 9.40532C13.3773 8.96808 12.8258 8.74835 12.1351 8.74835C11.4445 8.74835 10.8929 8.96696 10.4837 9.40532C10.0745 9.84255 9.86935 10.4569 9.86935 11.2473V17.6646H6.24817V5.8469H9.86935V7.41422C10.236 6.89178 10.7304 6.47922 11.3515 6.17539C11.9726 5.87157 12.671 5.72021 13.448 5.72021C14.8314 5.72021 15.9368 6.16866 16.762 7.06443V7.06555Z" fill="black"/>
</svg>
