<svg width="21" height="21" viewBox="0 0 21 21" fill="none" xmlns="http://www.w3.org/2000/svg">
<path d="M4.36858 7.73567C4.50106 6.74206 5.34863 6 6.35103 6H14.049C15.0514 6 15.8989 6.74206 16.0314 7.73567L17.0981 15.7357C17.258 16.9346 16.3252 18 15.1156 18H5.28437C4.07479 18 3.14205 16.9346 3.30191 15.7357L4.36858 7.73567Z" fill="black" stroke="white" stroke-width="1.5"/>
<path d="M13.4 6V5.2C13.4 3.43269 11.9673 2 10.2 2V2C8.43269 2 7 3.43269 7 5.2L7 6" stroke="white" stroke-width="1.5" stroke-linecap="round"/>
<path d="M6.6527 10.8941L6.96289 9.3641C7.05741 8.8979 7.46726 8.5628 7.94295 8.5628L9.4023 8.5628" stroke="white" stroke-width="1.5" stroke-linecap="round"/>
</svg>
