<svg width="22" height="16" viewBox="0 0 22 16" fill="none" xmlns="http://www.w3.org/2000/svg">
<path d="M21.0749 4.68446C20.949 3.46908 20.6781 2.12554 19.6808 1.41948C18.9084 0.871939 17.8931 0.851697 16.9454 0.852821C14.9418 0.852821 12.9372 0.856198 10.9337 0.857323C9.00663 0.859571 7.07956 0.860694 5.1525 0.862943C4.3475 0.862943 3.56498 0.801105 2.81731 1.14964C2.17533 1.4487 1.67277 2.01761 1.37033 2.65059C0.950963 3.53092 0.863272 4.52818 0.812678 5.50183C0.719361 7.27486 0.729479 9.05239 0.840786 10.8243C0.92286 12.1172 1.13085 13.5462 2.13036 14.3704C3.01632 15.1 4.26654 15.136 5.41558 15.1371C9.06283 15.1405 12.7112 15.1439 16.3596 15.1461C16.8273 15.1472 17.3153 15.1383 17.792 15.0865C18.7296 14.9854 19.6234 14.7166 20.2261 14.0218C20.8343 13.3214 20.9906 12.3466 21.0828 11.4235C21.3077 9.18393 21.3054 6.92295 21.0749 4.68446ZM8.82449 11.1391V4.85985L14.2616 7.99891L8.82449 11.1391Z" fill="black"/>
</svg>
